<svg width="319" height="320" viewBox="0 0 319 320" fill="none" xmlns="http://www.w3.org/2000/svg">
<path d="M0 319.089L22.323 239.805C7.968 215.418 0.409996 187.671 0.409996 159.167C0.409996 71.402 71.812 0 159.577 0C247.342 0 318.743 71.402 318.743 159.167C318.743 246.932 247.342 318.334 159.577 318.334C132.23 318.334 105.452 311.334 81.763 298.042L0 319.089ZM85.943 269.085L90.815 272.06C111.469 284.669 135.247 291.334 159.577 291.334C232.454 291.334 291.743 232.044 291.743 159.167C291.743 86.29 232.454 27 159.577 27C86.7 27 27.41 86.29 27.41 159.167C27.41 184.56 34.627 209.219 48.279 230.478L51.56 235.587L38.705 281.245L85.943 269.085Z" fill="white"/>
<path d="M114.865 85.0856L104.537 84.5226C101.293 84.3456 98.1105 85.4296 95.6585 87.5596C90.6515 91.9076 82.6455 100.314 80.1865 111.268C76.5195 127.601 82.1865 147.601 96.8535 167.601C111.521 187.601 138.854 219.601 187.187 233.268C202.762 237.672 215.014 234.703 224.467 228.656C231.954 223.867 237.115 216.18 238.975 207.49L240.624 199.788C241.148 197.34 239.905 194.856 237.631 193.808L202.726 177.719C200.46 176.675 197.773 177.335 196.249 179.31L182.546 197.074C181.511 198.416 179.739 198.948 178.139 198.386C168.755 195.088 137.321 181.923 120.073 148.699C119.325 147.258 119.511 145.509 120.572 144.28L133.668 129.13C135.006 127.583 135.344 125.408 134.54 123.528L119.494 88.3266C118.693 86.4526 116.898 85.1966 114.865 85.0856Z" fill="white"/>
</svg>
